HIERARCHY
ROOT Hips
{
	OFFSET 0.00000 0.00000 0.00000
	CHANNELS 6 Xposition Yposition Zposition Zrotation Yrotation Xrotation 
	JOINT LHipJoint
	{
		OFFSET 0 0 0
		CHANNELS 3 Zrotation Yrotation Xrotation
		JOINT LeftUpLeg
		{
			OFFSET 1.55766 -1.60504 1.11378
			CHANNELS 3 Zrotation Yrotation Xrotation
			JOINT LeftLeg
			{
				OFFSET 2.29047 -6.29302 0.00000
				CHANNELS 3 Zrotation Yrotation Xrotation
				JOINT LeftFoot
				{
					OFFSET 2.52265 -6.93093 0.00000
					CHANNELS 3 Zrotation Yrotation Xrotation
					JOINT LeftToeBase
					{
						OFFSET 0.17633 -0.48446 2.02656
						CHANNELS 3 Zrotation Yrotation Xrotation
						End Site
						{
							OFFSET 0.00000 -0.00000 1.04989
						}
					}
				}
			}
		}
	}
	JOINT RHipJoint
	{
		OFFSET 0 0 0
		CHANNELS 3 Zrotation Yrotation Xrotation
		JOINT RightUpLeg
		{
			OFFSET -1.48599 -1.60504 1.11378
			CHANNELS 3 Zrotation Yrotation Xrotation
			JOINT RightLeg
			{
				OFFSET -2.27280 -6.24448 0.00000
				CHANNELS 3 Zrotation Yrotation Xrotation
				JOINT RightFoot
				{
					OFFSET -2.50834 -6.89161 0.00000
					CHANNELS 3 Zrotation Yrotation Xrotation
					JOINT RightToeBase
					{
						OFFSET -0.26967 -0.74090 2.08741
						CHANNELS 3 Zrotation Yrotation Xrotation
						End Site
						{
							OFFSET -0.00000 -0.00000 1.10614
						}
					}
				}
			}
		}
	}
	JOINT LowerBack
	{
		OFFSET 0 0 0
		CHANNELS 3 Zrotation Yrotation Xrotation
		JOINT Spine
		{
			OFFSET 0.06481 2.02437 -0.08472
			CHANNELS 3 Zrotation Yrotation Xrotation
			JOINT Spine1
			{
				OFFSET 0.00015 1.96711 0.18069
				CHANNELS 3 Zrotation Yrotation Xrotation
				JOINT Neck
				{
					OFFSET 0 0 0
					CHANNELS 3 Zrotation Yrotation Xrotation
					JOINT Neck1
					{
						OFFSET -0.29961 1.68293 -0.13041
						CHANNELS 3 Zrotation Yrotation Xrotation
						JOINT Head
						{
							OFFSET 0.59697 1.61501 -0.14669
							CHANNELS 3 Zrotation Yrotation Xrotation
							End Site
							{
								OFFSET 0.22973 1.74906 -0.10148
							}
						}
					}
				}
				JOINT LeftShoulder
				{
					OFFSET 0 0 0
					CHANNELS 3 Zrotation Yrotation Xrotation
					JOINT LeftArm
					{
						OFFSET 3.37968 1.02893 0.31147
						CHANNELS 3 Zrotation Yrotation Xrotation
						JOINT LeftForeArm
						{
							OFFSET 5.19807 -0.00000 -0.00000
							CHANNELS 3 Zrotation Yrotation Xrotation
							JOINT LeftHand
							{
								OFFSET 3.09370 -0.00000 -0.00000
								CHANNELS 3 Zrotation Yrotation Xrotation
								JOINT LeftFingerBase
								{
									OFFSET 0 0 0
									CHANNELS 3 Zrotation Yrotation Xrotation
									JOINT LeftHandIndex1
									{
										OFFSET 0.67263 -0.00000 -0.00000
										CHANNELS 3 Zrotation Yrotation Xrotation
										End Site
										{
											OFFSET 0.54229 -0.00000 -0.00000
										}
									}
								}
								JOINT LThumb
								{
									OFFSET 0 0 0
									CHANNELS 3 Zrotation Yrotation Xrotation
									End Site
									{
										OFFSET 0.55057 -0.00000 0.55057
									}
								}
							}
						}
					}
				}
				JOINT RightShoulder
				{
					OFFSET 0 0 0
					CHANNELS 3 Zrotation Yrotation Xrotation
					JOINT RightArm
					{
						OFFSET -3.38254 0.96355 -0.16120
						CHANNELS 3 Zrotation Yrotation Xrotation
						JOINT RightForeArm
						{
							OFFSET -5.45222 -0.00000 -0.00000
							CHANNELS 3 Zrotation Yrotation Xrotation
							JOINT RightHand
							{
								OFFSET -3.01284 -0.00000 -0.00000
								CHANNELS 3 Zrotation Yrotation Xrotation
								JOINT RightFingerBase
								{
									OFFSET 0 0 0
									CHANNELS 3 Zrotation Yrotation Xrotation
									JOINT RightHandIndex1
									{
										OFFSET -0.62230 -0.00000 -0.00000
										CHANNELS 3 Zrotation Yrotation Xrotation
										End Site
										{
											OFFSET -0.50171 -0.00000 -0.00000
										}
									}
								}
								JOINT RThumb
								{
									OFFSET 0 0 0
									CHANNELS 3 Zrotation Yrotation Xrotation
									End Site
									{
										OFFSET -0.50937 -0.00000 0.50937
									}
								}
							}
						}
					}
				}
			}
		}
	}
}
MOTION
Frames: 11
Frame Time: .0083333
8.142 15.7731 27.0209 0 0 0 0 0 0 -21 0 0 0 0 0 0 0 0 0 0 0 0 0 0 21 0 0 0 0 0 0 0 0 0 0 0 0 0 0 0 0 0 0 0 0 0 0 -16 0 0 21 0 0 11 0 0 0 -8 0 0 0 0 0 0 0 0 0 0 0 0 0 0 0 0 0 0 0 0 8 0 0 0 0 0 0 0 0 0 0 0 0 0 0 0 0 0
8.1420 15.7731 27.0209 -121.1040 -84.7352 134.0720 0.0000 0.0000 0.0000 -16.4963 -1.0963 -30.6612 3.9056 12.0338 35.8515 1.0971 -9.2989 -18.8539 0.5209 -4.6256 -12.8438 0.0000 0.0000 0.0000 26.4468 -2.4757 -29.1480 -3.1862 -10.9906 32.2482 -0.3280 20.4456 -16.9226 -0.1810 2.7401 -7.5561 4.0065 2.7479 -6.6359 -0.1496 3.0497 -11.0948 -2.3557 0.9554 -7.7458 -31.0221 -7.4227 16.1419 39.5734 -18.4215 1.0752 20.0658 -11.4359 4.8775 -0.0000 -0.0000 0.0000 -82.8521 19.6242 46.5207 20.0385 -30.6887 -5.5510 -0.0000 0.0000 -34.5250 16.0227 -6.1968 -1.7755 -7.1250 0.0000 -0.0000 -7.9050 23.5459 4.1269 -0.0000 -0.0000 0.0000 87.8014 -11.9406 37.2884 -13.8256 22.4849 -2.7611 0.0000 0.0000 21.2653 -7.0176 -0.7548 0.0929 7.1250 -0.0000 -0.0000 15.3832 -30.5233 5.6205
8.1420 15.7729 27.0231 -120.7680 -84.7074 133.7670 0.0000 0.0000 0.0000 -16.4403 -1.2147 -30.6517 3.9053 12.0333 35.8497 1.1000 -9.1934 -18.8665 0.5200 -4.6216 -12.8323 0.0000 0.0000 0.0000 26.4986 -2.4951 -29.1867 -3.1854 -10.9892 32.2436 -0.3344 20.4347 -16.9634 -0.1885 2.7965 -7.7126 4.0536 2.7576 -6.6358 -0.1429 3.0629 -11.0877 -2.3746 0.9593 -7.7354 -31.0713 -7.4093 16.1322 39.6293 -18.4152 1.0628 20.1129 -11.4378 4.8884 0.0000 0.0000 0.0000 -82.8570 19.5886 46.5501 20.0600 -30.7146 -5.5620 -0.0000 0.0000 -34.5505 15.9936 -6.2055 -1.7746 -7.1250 0.0000 -0.0000 -7.9261 23.5378 4.1396 0.0000 0.0000 0.0000 87.8503 -11.9224 37.2829 -13.8136 22.4676 -2.7565 0.0000 0.0000 21.3077 -7.0065 -0.7069 0.0869 7.1250 -0.0000 -0.0000 15.3842 -30.4765 5.6388
8.1426 15.7747 27.0239 -121.0660 -84.7917 134.0640 0.0000 0.0000 0.0000 -16.5513 -1.1508 -30.6731 3.8990 12.0248 35.8198 1.0904 -9.3133 -18.8003 0.5120 -4.5864 -12.7326 0.0000 0.0000 0.0000 26.3705 -2.4169 -29.1753 -3.1901 -10.9966 32.2684 -0.3268 20.4087 -16.8913 -0.1710 2.6642 -7.3452 3.9398 2.7598 -6.5789 -0.1701 3.0711 -11.0837 -2.3425 0.9713 -7.7661 -30.9881 -7.4249 16.1663 39.6141 -18.4027 0.9906 20.0847 -11.4303 4.8441 -0.0000 0.0000 0.0000 -82.8397 19.5554 46.6248 20.0811 -30.7400 -5.5728 -0.0000 0.0000 -34.5829 16.0013 -6.1806 -1.7684 -7.1250 0.0000 -0.0000 -7.9214 23.5632 4.1324 -0.0000 0.0000 0.0000 87.9478 -11.9150 37.0274 -13.7897 22.4333 -2.7474 0.0000 0.0000 21.5546 -6.9735 -0.6981 0.0854 7.1250 -0.0000 -0.0000 15.4082 -30.4672 5.6518
8.1433 15.7742 27.0282 -120.8590 -84.8048 133.8820 0.0000 0.0000 0.0000 -16.5793 -1.1311 -30.7095 3.8968 12.0218 35.8091 1.0914 -9.3176 -18.8095 0.5285 -4.6584 -12.9369 0.0000 0.0000 0.0000 26.3748 -2.5085 -29.2477 -3.1918 -10.9993 32.2776 -0.3227 20.4822 -16.9057 -0.1753 2.6967 -7.4355 3.9830 2.7777 -6.5513 -0.1984 3.0956 -11.0807 -2.3974 0.9791 -7.7735 -30.9713 -7.4337 16.1840 39.6403 -18.4101 0.9509 20.0948 -11.4374 4.8353 -0.0000 -0.0000 0.0000 -82.8335 19.5156 46.6514 20.0795 -30.7380 -5.5719 -0.0000 0.0000 -34.5706 16.0013 -6.2025 -1.7747 -7.1250 0.0000 -0.0000 -7.9205 23.5406 4.1361 -0.0000 -0.0000 0.0000 87.9867 -11.8930 36.9652 -13.7778 22.4162 -2.7428 0.0000 0.0000 21.6020 -6.9460 -0.6501 0.0792 7.1250 -0.0000 -0.0000 15.4218 -30.4198 5.6753
8.1439 15.7744 27.0307 -120.6460 -84.8193 133.6870 0.0000 0.0000 0.0000 -16.5962 -1.1197 -30.7328 3.8931 12.0168 35.7916 1.0884 -9.3518 -18.7886 0.5298 -4.6642 -12.9533 0.0000 0.0000 0.0000 26.3662 -2.5253 -29.2823 -3.1943 -11.0031 32.2904 -0.3216 20.4941 -16.9046 -0.1740 2.6870 -7.4085 3.9985 2.7875 -6.5336 -0.2165 3.1103 -11.0655 -2.4254 0.9857 -7.7640 -30.9381 -7.4426 16.1965 39.6598 -18.4063 0.8995 20.0980 -11.4371 4.8164 -0.0000 0.0000 0.0000 -82.8200 19.4671 46.7013 20.0933 -30.7546 -5.5790 -0.0000 0.0000 -34.5901 16.0110 -6.2016 -1.7755 -7.1250 0.0000 -0.0000 -7.9134 23.5412 4.1322 -0.0000 0.0000 0.0000 88.0514 -11.8542 36.8342 -13.7565 22.3855 -2.7347 0.0000 0.0000 21.7356 -6.9313 -0.6108 0.0743 7.1250 -0.0000 -0.0000 15.4269 -30.3813 5.6921
8.1445 15.7747 27.0332 -120.3870 -84.8280 133.4430 0.0000 0.0000 0.0000 -16.6029 -1.1093 -30.7661 3.8937 12.0176 35.7943 1.0863 -9.3928 -18.7764 0.5287 -4.6596 -12.9401 0.0000 0.0000 0.0000 26.3661 -2.5364 -29.3048 -3.1935 -11.0019 32.2862 -0.3206 20.4948 -16.8974 -0.1732 2.6811 -7.3920 4.0206 2.7954 -6.5194 -0.2316 3.1224 -11.0468 -2.4538 0.9909 -7.7487 -30.9065 -7.4510 16.2054 39.6793 -18.4017 0.8505 20.1014 -11.4361 4.7987 0.0000 0.0000 0.0000 -82.8086 19.4168 46.7456 20.1058 -30.7696 -5.5854 -0.0000 0.0000 -34.6109 16.0233 -6.2003 -1.7766 -7.1250 0.0000 -0.0000 -7.9044 23.5422 4.1272 0.0000 0.0000 0.0000 88.1100 -11.8081 36.7126 -13.7339 22.3531 -2.7261 0.0000 0.0000 21.8676 -6.9214 -0.5689 0.0691 7.1250 -0.0000 -0.0000 15.4279 -30.3404 5.7082
8.1451 15.7750 27.0356 -120.0820 -84.8281 133.1570 0.0000 0.0000 0.0000 -16.5969 -1.1082 -30.7980 3.8947 12.0189 35.7988 1.0846 -9.4269 -18.7661 0.5262 -4.6486 -12.9091 0.0000 0.0000 0.0000 26.3774 -2.5435 -29.3235 -3.1916 -10.9989 32.2761 -0.3208 20.4855 -16.8935 -0.1736 2.6839 -7.3998 4.0494 2.8012 -6.5075 -0.2407 3.1317 -11.0282 -2.4797 0.9944 -7.7324 -30.8875 -7.4550 16.2127 39.7026 -18.3960 0.8093 20.1110 -11.4352 4.7852 -0.0000 -0.0000 0.0000 -82.8042 19.3698 46.7778 20.1159 -30.7817 -5.5905 -0.0000 0.0000 -34.6306 16.0350 -6.1981 -1.7773 -7.1250 0.0000 -0.0000 -7.8958 23.5440 4.1223 -0.0000 -0.0000 0.0000 88.1572 -11.7628 36.6236 -13.7135 22.3237 -2.7183 0.0000 0.0000 21.9782 -6.9149 -0.5295 0.0642 7.1250 -0.0000 -0.0000 15.4266 -30.3020 5.7224
8.1458 15.7754 27.0378 -119.7910 -84.8269 132.8840 0.0000 0.0000 0.0000 -16.5882 -1.1118 -30.8299 3.8961 12.0208 35.8055 1.0827 -9.4597 -18.7549 0.5218 -4.6295 -12.8548 0.0000 0.0000 0.0000 26.3886 -2.5383 -29.3364 -3.1890 -10.9949 32.2627 -0.3228 20.4604 -16.8933 -0.1749 2.6937 -7.4270 4.0679 2.8030 -6.4932 -0.2407 3.1361 -11.0117 -2.4902 0.9965 -7.7211 -30.8839 -7.4545 16.2175 39.7231 -18.3878 0.7774 20.1234 -11.4327 4.7749 -0.0000 -0.0000 0.0000 -82.8224 19.3245 46.7758 20.1149 -30.7806 -5.5900 -0.0000 0.0000 -34.6299 16.0403 -6.2001 -1.7785 -7.1250 0.0000 -0.0000 -7.8919 23.5418 4.1206 -0.0000 -0.0000 0.0000 88.1790 -11.7278 36.6069 -13.7019 22.3070 -2.7139 0.0000 0.0000 22.0331 -6.9092 -0.5060 0.0613 7.1250 -0.0000 -0.0000 15.4273 -30.2791 5.7315
8.1464 15.7759 27.0402 -119.5020 -84.8244 132.6180 0.0000 0.0000 0.0000 -16.5793 -1.1174 -30.8656 3.8977 12.0231 35.8136 1.0811 -9.4890 -18.7449 0.5180 -4.6131 -12.8082 0.0000 0.0000 0.0000 26.4003 -2.5293 -29.3516 -3.1862 -10.9905 32.2478 -0.3250 20.4332 -16.8929 -0.1766 2.7066 -7.4629 4.0840 2.8035 -6.4763 -0.2358 3.1389 -11.0003 -2.4945 0.9977 -7.7174 -30.8932 -7.4504 16.2235 39.7420 -18.3797 0.7546 20.1386 -11.4306 4.7684 -0.0000 -0.0000 0.0000 -82.8499 19.2874 46.7667 20.1099 -30.7745 -5.5875 -0.0000 0.0000 -34.6273 16.0440 -6.2015 -1.7793 -7.1250 0.0000 -0.0000 -7.8892 23.5403 4.1195 -0.0000 -0.0000 0.0000 88.1773 -11.7082 36.6700 -13.7011 22.3058 -2.7136 0.0000 0.0000 22.0179 -6.9076 -0.5064 0.0614 7.1250 -0.0000 -0.0000 15.4287 -30.2795 5.7319
8.1469 15.7764 27.0425 -119.2760 -84.8230 132.4170 0.0000 0.0000 0.0000 -16.5737 -1.1268 -30.9024 3.8992 12.0250 35.8206 1.0794 -9.5135 -18.7340 0.5145 -4.5975 -12.7639 0.0000 0.0000 0.0000 26.4056 -2.5035 -29.3650 -3.1835 -10.9863 32.2337 -0.3286 20.3920 -16.8949 -0.1788 2.7236 -7.5101 4.0862 2.8029 -6.4581 -0.2249 3.1405 -10.9929 -2.4849 0.9993 -7.7201 -30.9145 -7.4438 16.2283 39.7569 -18.3714 0.7396 20.1545 -11.4279 4.7649 -0.0000 -0.0000 0.0000 -82.8941 19.2543 46.7400 20.0973 -30.7593 -5.5810 -0.0000 0.0000 -34.6097 16.0439 -6.2055 -1.7805 -7.1250 0.0000 -0.0000 -7.8890 23.5361 4.1201 -0.0000 -0.0000 0.0000 88.1514 -11.7017 36.8071 -13.7113 22.3205 -2.7175 0.0000 0.0000 21.9356 -6.9088 -0.5287 0.0641 7.1250 -0.0000 -0.0000 15.4312 -30.3011 5.7246
